<?xml version="1.0" encoding="UTF-8" standalone="no"?>
<!DOCTYPE svg PUBLIC "-//W3C//DTD SVG 1.1//EN"
 "http://www.w3.org/Graphics/SVG/1.1/DTD/svg11.dtd">
<!-- Generated by graphviz version 2.36.0 (20140111.2315)
 -->
<!-- Title: G Pages: 1 -->
<svg width="590pt" height="260pt"
 viewBox="0.00 0.00 590.00 260.00" xmlns="http://www.w3.org/2000/svg" xmlns:xlink="http://www.w3.org/1999/xlink">
<g id="graph0" class="graph" transform="scale(1 1) rotate(0) translate(4 256)">
<title>G</title>
<polygon fill="white" stroke="none" points="-4,4 -4,-256 586,-256 586,4 -4,4"/>
<!-- calc -->
<g id="node1" class="node"><title>calc</title>
<ellipse fill="none" stroke="black" cx="112" cy="-18" rx="51.4931" ry="18"/>
<text text-anchor="middle" x="112" y="-14.3" font-family="Times,serif" font-size="14.00">LamduCalc</text>
</g>
<!-- compiler -->
<g id="node2" class="node"><title>compiler</title>
<ellipse fill="none" stroke="black" cx="44" cy="-162" rx="44.2946" ry="18"/>
<text text-anchor="middle" x="44" y="-158.3" font-family="Times,serif" font-size="14.00">Compiler</text>
</g>
<!-- compiler&#45;&gt;calc -->
<g id="edge2" class="edge"><title>compiler&#45;&gt;calc</title>
<path fill="none" stroke="black" d="M38.1579,-143.881C32.8327,-125.146 27.4035,-94.7499 39,-72 46.2932,-57.6923 59.4556,-46.3433 72.6155,-37.8782"/>
<polygon fill="black" stroke="black" points="74.425,-40.8742 81.2013,-32.7298 70.825,-34.8708 74.425,-40.8742"/>
</g>
<!-- infer -->
<g id="node3" class="node"><title>infer</title>
<ellipse fill="none" stroke="black" cx="112" cy="-90" rx="63.5411" ry="18"/>
<text text-anchor="middle" x="112" y="-86.3" font-family="Times,serif" font-size="14.00">Type inference</text>
</g>
<!-- infer&#45;&gt;calc -->
<g id="edge1" class="edge"><title>infer&#45;&gt;calc</title>
<path fill="none" stroke="black" d="M112,-71.6966C112,-63.9827 112,-54.7125 112,-46.1124"/>
<polygon fill="black" stroke="black" points="115.5,-46.1043 112,-36.1043 108.5,-46.1044 115.5,-46.1043"/>
</g>
<!-- store -->
<g id="node4" class="node"><title>store</title>
<ellipse fill="none" stroke="black" cx="242" cy="-90" rx="48.1437" ry="18"/>
<text text-anchor="middle" x="242" y="-86.3" font-family="Times,serif" font-size="14.00">Data.Store</text>
</g>
<!-- animation -->
<g id="node5" class="node"><title>animation</title>
<ellipse fill="none" stroke="black" cx="507" cy="-18" rx="74.6146" ry="18"/>
<text text-anchor="middle" x="507" y="-14.3" font-family="Times,serif" font-size="14.00">Animation engine</text>
</g>
<!-- widgets -->
<g id="node6" class="node"><title>widgets</title>
<ellipse fill="none" stroke="black" cx="507" cy="-90" rx="67.3907" ry="18"/>
<text text-anchor="middle" x="507" y="-86.3" font-family="Times,serif" font-size="14.00">GUI framework</text>
</g>
<!-- widgets&#45;&gt;animation -->
<g id="edge3" class="edge"><title>widgets&#45;&gt;animation</title>
<path fill="none" stroke="black" d="M507,-71.6966C507,-63.9827 507,-54.7125 507,-46.1124"/>
<polygon fill="black" stroke="black" points="510.5,-46.1043 507,-36.1043 503.5,-46.1044 510.5,-46.1043"/>
</g>
<!-- sugar -->
<g id="node7" class="node"><title>sugar</title>
<ellipse fill="none" stroke="black" cx="365" cy="-90" rx="56.3173" ry="18"/>
<text text-anchor="middle" x="365" y="-86.3" font-family="Times,serif" font-size="14.00">LamduSugar</text>
</g>
<!-- sugar&#45;&gt;calc -->
<g id="edge4" class="edge"><title>sugar&#45;&gt;calc</title>
<path fill="none" stroke="black" d="M323.788,-77.5975C279.212,-65.2641 208.188,-45.6133 160.84,-32.5131"/>
<polygon fill="black" stroke="black" points="161.685,-29.1155 151.114,-29.8221 159.819,-35.862 161.685,-29.1155"/>
</g>
<!-- sugarconvert -->
<g id="node8" class="node"><title>sugarconvert</title>
<ellipse fill="none" stroke="black" cx="230" cy="-162" rx="111.186" ry="18"/>
<text text-anchor="middle" x="230" y="-158.3" font-family="Times,serif" font-size="14.00">LamduCalc&lt;&#45;&gt;LamduSugar</text>
</g>
<!-- sugarconvert&#45;&gt;infer -->
<g id="edge6" class="edge"><title>sugarconvert&#45;&gt;infer</title>
<path fill="none" stroke="black" d="M202.036,-144.411C185.553,-134.633 164.554,-122.176 146.981,-111.752"/>
<polygon fill="black" stroke="black" points="148.533,-108.603 138.147,-106.511 144.962,-114.623 148.533,-108.603"/>
</g>
<!-- sugarconvert&#45;&gt;store -->
<g id="edge7" class="edge"><title>sugarconvert&#45;&gt;store</title>
<path fill="none" stroke="black" d="M232.966,-143.697C234.289,-135.983 235.878,-126.712 237.352,-118.112"/>
<polygon fill="black" stroke="black" points="240.828,-118.552 239.068,-108.104 233.928,-117.369 240.828,-118.552"/>
</g>
<!-- sugarconvert&#45;&gt;sugar -->
<g id="edge5" class="edge"><title>sugarconvert&#45;&gt;sugar</title>
<path fill="none" stroke="black" d="M261.652,-144.588C281.386,-134.356 306.879,-121.137 327.608,-110.389"/>
<polygon fill="black" stroke="black" points="329.492,-113.354 336.759,-105.644 326.27,-107.14 329.492,-113.354"/>
</g>
<!-- ui -->
<g id="node9" class="node"><title>ui</title>
<ellipse fill="none" stroke="black" cx="408" cy="-162" rx="48.1437" ry="18"/>
<text text-anchor="middle" x="408" y="-158.3" font-family="Times,serif" font-size="14.00">Lamdu UI</text>
</g>
<!-- ui&#45;&gt;widgets -->
<g id="edge9" class="edge"><title>ui&#45;&gt;widgets</title>
<path fill="none" stroke="black" d="M429.482,-145.811C442.982,-136.265 460.63,-123.787 475.675,-113.149"/>
<polygon fill="black" stroke="black" points="478.038,-115.765 484.183,-107.134 473.997,-110.049 478.038,-115.765"/>
</g>
<!-- ui&#45;&gt;sugar -->
<g id="edge8" class="edge"><title>ui&#45;&gt;sugar</title>
<path fill="none" stroke="black" d="M397.591,-144.055C392.52,-135.801 386.317,-125.701 380.687,-116.538"/>
<polygon fill="black" stroke="black" points="383.53,-114.478 375.313,-107.789 377.565,-118.142 383.53,-114.478"/>
</g>
<!-- main -->
<g id="node10" class="node"><title>main</title>
<ellipse fill="none" stroke="black" cx="230" cy="-234" rx="28.3955" ry="18"/>
<text text-anchor="middle" x="230" y="-230.3" font-family="Times,serif" font-size="14.00">main</text>
</g>
<!-- main&#45;&gt;compiler -->
<g id="edge12" class="edge"><title>main&#45;&gt;compiler</title>
<path fill="none" stroke="black" d="M206.065,-223.992C175.441,-212.467 121.93,-192.329 84.8154,-178.361"/>
<polygon fill="black" stroke="black" points="85.8782,-175.021 75.2863,-174.774 83.4126,-181.572 85.8782,-175.021"/>
</g>
<!-- main&#45;&gt;sugarconvert -->
<g id="edge11" class="edge"><title>main&#45;&gt;sugarconvert</title>
<path fill="none" stroke="black" d="M230,-215.697C230,-207.983 230,-198.712 230,-190.112"/>
<polygon fill="black" stroke="black" points="233.5,-190.104 230,-180.104 226.5,-190.104 233.5,-190.104"/>
</g>
<!-- main&#45;&gt;ui -->
<g id="edge10" class="edge"><title>main&#45;&gt;ui</title>
<path fill="none" stroke="black" d="M253.637,-223.705C282.422,-212.384 331.538,-193.069 366.638,-179.266"/>
<polygon fill="black" stroke="black" points="368.113,-182.447 376.138,-175.53 365.551,-175.933 368.113,-182.447"/>
</g>
</g>
</svg>
